#N canvas 287 39 738 410 12;
#X obj 251 263 snapshot~;
#X obj 357 263 snapshot~;
#X obj 44 30 loadbang;
#X msg 43 134 disconnect;
#X obj 89 62 del 2000;
#X obj 33 355 netsend -u;
#X obj 159 88 del 5000;
#X msg 46 241 connect 192.168.7.1 7005;
#X obj 381 175 tgl 15 0 empty empty empty 17 7 0 10 -262144 -1 -1 1
1;
#X obj 382 204 metro 100;
#X obj 248 345 pack f f f;
#X obj 461 275 snapshot~;
#X obj 300 54 adc~ 3 4 5;
#X msg 87 302 send \$1 \$2 \$3;
#X connect 0 0 10 0;
#X connect 1 0 10 1;
#X connect 2 0 3 0;
#X connect 2 0 4 0;
#X connect 3 0 5 0;
#X connect 4 0 7 0;
#X connect 4 0 6 0;
#X connect 6 0 8 0;
#X connect 7 0 5 0;
#X connect 8 0 9 0;
#X connect 9 0 1 0;
#X connect 9 0 0 0;
#X connect 9 0 11 0;
#X connect 10 0 13 0;
#X connect 11 0 10 2;
#X connect 12 0 0 0;
#X connect 12 1 1 0;
#X connect 12 2 11 0;
#X connect 13 0 5 0;
