#N canvas 153 188 450 300 10;
#X obj 118 94 osc~;
#X obj 198 94 phasor~;
#X obj 315 51 receive colour;
#X floatatom 312 96 5 0 0 0 - - -;
#X obj 228 149 *~;
#X obj 313 157 * -1;
#X obj 313 130 - 1;
#X floatatom 348 186 5 0 0 0 - - -;
#X obj 155 149 *~;
#X obj 174 260 outlet~;
#X obj 161 44 inlet;
#X obj 180 217 +~;
#X obj 267 217 line~;
#X msg 268 187 \$1 5;
#X obj 267 146 line~;
#X msg 268 116 \$1 5;
#X connect 0 0 8 0;
#X connect 1 0 4 0;
#X connect 2 0 3 0;
#X connect 3 0 6 0;
#X connect 3 0 15 0;
#X connect 4 0 11 1;
#X connect 5 0 7 0;
#X connect 5 0 13 0;
#X connect 6 0 5 0;
#X connect 8 0 11 0;
#X connect 10 0 0 0;
#X connect 10 0 1 0;
#X connect 11 0 9 0;
#X connect 12 0 8 1;
#X connect 13 0 12 0;
#X connect 14 0 4 1;
#X connect 15 0 14 0;
