#N canvas 309 22 971 756 12;
#X floatatom 468 344 5 0 0 0 - - -;
#X msg 558 288 disconnect;
#X obj 470 315 netsend -u;
#X obj 388 95 netreceive -u;
#X msg 348 251 connect localhost 20007;
#X msg 382 68 listen 7005;
#X obj 86 157 spigot;
#X obj 125 135 tgl 15 0 empty empty empty 17 7 0 10 -262144 -1 -1 0
1;
#X obj 132 49 bng 30 250 50 0 empty empty empty 17 7 0 10 -4034 -1
-1;
#X floatatom 235 122 5 0 5 0 - - -;
#X obj 122 191 list append;
#X msg 124 229 send \$1 \$2 \$3 \$4;
#X obj 626 207 print prediction;
#X msg 556 85 listen 7001;
#X obj 579 150 oscparse;
#X obj 562 112 netreceive -u -b;
#X text 550 50 Receives the prediction as OSC signal from python;
#X text 230 46 receives the sensor data from bela board;
#X text 188 98 this is a label/category;
#X text 464 368 sends the data to python along with the label in the
last position of a list \; when python program is in prediction mode
\, the label sent to it will be ignored;
#X text 23 18 Push this button to start sending data to python;
#X obj 124 264 s values;
#X obj 471 285 r values;
#X obj 70 267 print;
#X obj 73 400 r values;
#X obj 74 469 *~;
#X obj 72 497 dac~;
#X obj 177 400 vsl 15 128 0 1 0 0 empty empty empty 0 -9 0 10 -4034
-1 -1 0 1;
#X text 192 453 Volume;
#X msg 566 569 disconnect;
#X obj 508 615 netsend -u -b;
#X obj 412 552 r values;
#X text 504 504 Connect to Ableton:;
#N canvas 252 22 450 300 osc_send 0;
#X obj 112 158 list prepend send;
#X obj 113 179 list trim;
#X obj 112 136 oscformat;
#X obj 64 39 inlet;
#X obj 113 240 outlet;
#X obj 113 97 route send;
#X obj 291 217 print;
#X connect 0 0 1 0;
#X connect 1 0 4 0;
#X connect 2 0 0 0;
#X connect 3 0 5 0;
#X connect 5 0 2 0;
#X restore 412 581 pd osc_send;
#X obj 626 182 spigot;
#X obj 665 163 tgl 15 0 empty empty empty 17 7 0 10 -262144 -1 -1 0
1;
#X obj 412 629 print osc;
#X obj 412 604 spigot;
#X obj 444 528 tgl 15 0 empty empty empty 17 7 0 10 -257985 -1 -1 0
1;
#X obj 238 178 +;
#N canvas 14 38 450 681 eSynth 0;
#X obj 207 18 inlet;
#X floatatom 22 166 10 0 0 0 - - -;
#X floatatom 99 167 10 0 0 0 - - -;
#X floatatom 176 168 10 0 0 0 - - -;
#X floatatom 293 92 5 0 0 0 - - -;
#X obj 46 140 synth~;
#X obj 97 140 synth~;
#X obj 145 140 synth~;
#X obj 192 475 *~;
#X obj 99 471 *~;
#X obj 17 461 *~;
#X obj 209 454 / 3;
#X obj 24 435 / 3;
#X obj 219 571 +~;
#X msg 148 116 1050;
#X msg 97 117 600;
#X obj 141 44 unpack s f f f f;
#X obj 345 606 change;
#X obj 345 530 int;
#X floatatom 345 554 5 0 0 0 - - -;
#X obj 343 503 * 100;
#X obj 421 675 tgl 15 0 empty empty empty 17 7 0 10 -262144 -1 -1 0
1;
#X obj 420 655 bng 15 250 50 0 empty empty empty 17 7 0 10 -262144
-1 -1;
#X obj 345 579 / 100;
#X obj 356 662 spigot 0;
#X obj 217 598 outlet~;
#X obj 375 199 vsl 15 40 0 1 0 0 empty empty empty 0 -9 0 10 -260097
-1 -1 0 1;
#X obj 375 249 s colour;
#X msg 264 196 300;
#X msg 277 255 600;
#X obj 285 450 synth~;
#X obj 249 225 bng 15 250 50 0 empty empty empty 17 7 0 10 -262144
-1 -1;
#X obj 257 260 bng 15 250 50 0 empty empty empty 17 7 0 10 -262144
-1 -1;
#X obj 284 316 bng 15 250 50 0 empty empty empty 17 7 0 10 -262144
-1 -1;
#X floatatom 185 249 5 0 0 0 - - -;
#X obj 183 213 > 0.66;
#X floatatom 109 260 5 0 0 0 - - -;
#X obj 118 435 / 3;
#X floatatom 23 244 5 0 0 0 - - -;
#X obj 21 208 > 0.57;
#X obj 102 213 > 0.54;
#X msg 45 117 300;
#X msg 304 313 1050;
#X obj 325 17 inlet;
#X obj 340 50 unpack s f;
#X msg 349 349 1;
#X obj 365 389 bng 15 250 50 0 empty empty empty 17 7 0 10 -262144
-1 -1;
#X obj 293 118 route 11 12 13;
#X floatatom 80 551 5 0 0 0 - - -;
#X connect 0 0 16 0;
#X connect 1 0 39 0;
#X connect 2 0 40 0;
#X connect 3 0 35 0;
#X connect 4 0 47 0;
#X connect 5 0 10 0;
#X connect 6 0 9 0;
#X connect 7 0 8 0;
#X connect 8 0 13 0;
#X connect 9 0 13 0;
#X connect 10 0 13 0;
#X connect 11 0 8 1;
#X connect 12 0 10 1;
#X connect 13 0 25 0;
#X connect 14 0 7 0;
#X connect 15 0 6 0;
#X connect 16 1 1 0;
#X connect 16 1 41 0;
#X connect 16 2 2 0;
#X connect 16 2 15 0;
#X connect 16 3 3 0;
#X connect 16 3 14 0;
#X connect 17 0 22 0;
#X connect 17 0 24 0;
#X connect 18 0 19 0;
#X connect 19 0 23 0;
#X connect 20 0 18 0;
#X connect 21 0 24 1;
#X connect 22 0 21 0;
#X connect 23 0 17 0;
#X connect 26 0 27 0;
#X connect 28 0 30 0;
#X connect 29 0 30 0;
#X connect 34 0 11 0;
#X connect 35 0 34 0;
#X connect 36 0 37 0;
#X connect 37 0 9 1;
#X connect 37 0 48 0;
#X connect 38 0 12 0;
#X connect 39 0 38 0;
#X connect 40 0 36 0;
#X connect 41 0 5 0;
#X connect 42 0 30 0;
#X connect 43 0 44 0;
#X connect 44 1 4 0;
#X connect 45 0 30 0;
#X connect 45 0 46 0;
#X connect 47 0 28 0;
#X connect 47 0 31 0;
#X connect 47 1 29 0;
#X connect 47 1 32 0;
#X connect 47 2 42 0;
#X connect 47 2 33 0;
#X connect 47 3 45 0;
#X restore 73 424 pd eSynth;
#X floatatom 255 206 5 0 0 0 - - -;
#X text 398 527 print:;
#X msg 517 530 connect 127.0.0.1 8006;
#X text 37 374 Sound Synthesis:;
#X connect 1 0 2 0;
#X connect 2 0 0 0;
#X connect 3 0 6 0;
#X connect 4 0 2 0;
#X connect 5 0 3 0;
#X connect 6 0 10 0;
#X connect 7 0 6 1;
#X connect 8 0 7 0;
#X connect 8 0 9 0;
#X connect 9 0 39 0;
#X connect 10 0 11 0;
#X connect 11 0 21 0;
#X connect 13 0 15 0;
#X connect 14 0 34 0;
#X connect 14 0 40 1;
#X connect 15 0 14 0;
#X connect 22 0 2 0;
#X connect 24 0 40 0;
#X connect 25 0 26 0;
#X connect 25 0 26 1;
#X connect 27 0 25 1;
#X connect 29 0 30 0;
#X connect 31 0 33 0;
#X connect 33 0 30 0;
#X connect 33 0 37 0;
#X connect 34 0 12 0;
#X connect 35 0 34 1;
#X connect 37 0 36 0;
#X connect 38 0 37 1;
#X connect 39 0 10 1;
#X connect 39 0 41 0;
#X connect 40 0 25 0;
#X connect 43 0 30 0;
